<svg width="149" height="19" viewBox="0 0 149 19" fill="none" xmlns="http://www.w3.org/2000/svg">
<path d="M7.80888 14.4399C7.80888 14.6426 7.71388 14.7439 7.52388 14.7439H3.95188C2.69788 14.7439 1.72255 14.4146 1.02588 13.7559C0.341879 13.0972 -0.00012105 12.2042 -0.00012105 11.0769V4.9019C-0.00012105 3.77456 0.341879 2.88156 1.02588 2.2229C1.70988 1.55156 2.68521 1.2159 3.95188 1.2159H7.73288V3.4389H3.95188C3.35655 3.4389 2.95121 3.58456 2.73588 3.8759C2.54588 4.1039 2.45088 4.50923 2.45088 5.0919V6.7259H7.50488V8.9489H2.45088V10.8869C2.45088 11.4569 2.54588 11.8622 2.73588 12.1029C2.95121 12.3816 3.35655 12.5209 3.95188 12.5209H7.80888V14.4399ZM15.4733 12.1979V6.8399C14.688 6.56123 14.0673 6.4219 13.6113 6.4219C13.1173 6.4219 12.731 6.59923 12.4523 6.9539C12.1863 7.30856 12.0533 7.78356 12.0533 8.3789V10.5259C12.0533 11.8686 12.5726 12.5399 13.6113 12.5399C14.2193 12.5399 14.84 12.4259 15.4733 12.1979ZM17.8863 14.6489C17.8863 15.7256 17.5443 16.5996 16.8603 17.2709C16.189 17.9549 15.3213 18.2969 14.2573 18.2969H11.5593L11.3123 16.3209H14.2953C14.6246 16.3209 14.9033 16.1752 15.1313 15.8839C15.3593 15.5926 15.4733 15.2569 15.4733 14.8769V14.2119C14.7893 14.5666 14.1053 14.7439 13.4213 14.7439C12.3193 14.7439 11.4136 14.3639 10.7043 13.6039C9.99497 12.8439 9.6403 11.9129 9.6403 10.8109V8.1699C9.6403 7.0679 9.99497 6.1369 10.7043 5.3769C11.4136 4.60423 12.3193 4.2179 13.4213 4.2179C14.1053 4.2179 14.8843 4.43956 15.7583 4.8829L15.8153 4.3699H17.8863V14.6489ZM28.1448 9.8989C28.1448 10.1902 27.9992 10.3359 27.7078 10.3359H22.3498V10.6589C22.3498 12.0142 23.0528 12.6919 24.4588 12.6919C25.1302 12.6919 26.0865 12.4892 27.3278 12.0839L27.8598 14.1549C26.4665 14.6489 25.3392 14.8959 24.4778 14.8959C23.0465 14.8959 21.9128 14.4526 21.0768 13.5659C20.3168 12.7806 19.9368 11.8116 19.9368 10.6589V8.4739C19.9368 7.30856 20.2978 6.32056 21.0198 5.5099C21.8051 4.64856 22.8121 4.2179 24.0408 4.2179C25.2695 4.2179 26.2765 4.66123 27.0618 5.5479C27.7838 6.35856 28.1448 7.3339 28.1448 8.4739V9.8989ZM25.7128 8.5309C25.6368 7.1249 25.0795 6.4219 24.0408 6.4219C22.9895 6.4219 22.4321 7.1249 22.3688 8.5309H25.7128ZM38.2218 14.4399C38.2218 14.6426 38.1268 14.7439 37.9368 14.7439H35.8088V8.2839C35.8088 7.04256 35.3845 6.4219 34.5358 6.4219C34.0038 6.4219 33.3705 6.54856 32.6358 6.8019V14.7439H30.2228V4.3699H32.3128L32.3698 4.8829C33.3451 4.43956 34.1305 4.2179 34.7258 4.2179C35.8025 4.2179 36.6638 4.5979 37.3098 5.3579C37.9178 6.06723 38.2218 6.9729 38.2218 8.0749V14.4399ZM55.0368 14.7439H52.5668L51.5598 10.9819H46.9998L45.9928 14.7439H43.5228L46.6198 3.4199C47.0505 1.84923 47.9371 1.0639 49.2798 1.0639C50.6351 1.0639 51.5281 1.84923 51.9588 3.4199L55.0368 14.7439ZM50.9898 8.8539L49.6028 3.6669C49.5395 3.41356 49.4318 3.2869 49.2798 3.2869C49.1278 3.2869 49.0201 3.41356 48.9568 3.6669L47.5698 8.8539H50.9898ZM61.966 4.4079L61.662 6.5359C61.3073 6.4599 60.9907 6.4219 60.712 6.4219C60.2433 6.4219 59.6733 6.6689 59.002 7.1629V14.4399C59.002 14.6426 58.907 14.7439 58.717 14.7439H56.589V4.3699H58.698L58.755 5.3199C59.591 4.58523 60.2687 4.2179 60.788 4.2179C61.1933 4.2179 61.586 4.28123 61.966 4.4079ZM71.5699 10.9629C71.5699 12.0649 71.2152 12.9959 70.5059 13.7559C69.7966 14.5159 68.8909 14.8959 67.7889 14.8959C67.2062 14.8959 66.4272 14.6742 65.4519 14.2309L65.3949 14.7439H63.3429V0.531896L65.7559 0.379896V2.5649C65.7559 3.3629 65.7306 4.09756 65.6799 4.7689C66.4779 4.40156 67.1809 4.2179 67.7889 4.2179C68.8909 4.2179 69.7966 4.5979 70.5059 5.3579C71.2152 6.10523 71.5699 7.03623 71.5699 8.1509V10.9629ZM69.1569 10.7539V8.4169C69.1569 7.0869 68.6376 6.4219 67.5989 6.4219C67.0416 6.4219 66.4272 6.54223 65.7559 6.7829V12.2929C66.4146 12.5589 67.0289 12.6919 67.5989 12.6919C68.6376 12.6919 69.1569 12.0459 69.1569 10.7539ZM81.6751 9.8989C81.6751 10.1902 81.5294 10.3359 81.2381 10.3359H75.8801V10.6589C75.8801 12.0142 76.5831 12.6919 77.9891 12.6919C78.6604 12.6919 79.6168 12.4892 80.8581 12.0839L81.3901 14.1549C79.9968 14.6489 78.8694 14.8959 78.0081 14.8959C76.5768 14.8959 75.4431 14.4526 74.6071 13.5659C73.8471 12.7806 73.4671 11.8116 73.4671 10.6589V8.4739C73.4671 7.30856 73.8281 6.32056 74.5501 5.5099C75.3354 4.64856 76.3424 4.2179 77.5711 4.2179C78.7998 4.2179 79.8068 4.66123 80.5921 5.5479C81.3141 6.35856 81.6751 7.3339 81.6751 8.4739V9.8989ZM79.2431 8.5309C79.1671 7.1249 78.6098 6.4219 77.5711 6.4219C76.5198 6.4219 75.9624 7.1249 75.8991 8.5309H79.2431ZM88.9781 14.5919C88.3954 14.7946 87.8381 14.8959 87.3061 14.8959C86.2294 14.8959 85.3871 14.5666 84.7791 13.9079C84.2597 13.3379 84.0001 12.6412 84.0001 11.8179V6.2129H82.6511V4.3699H84.1711L84.5321 1.5579H86.4131V4.3699H88.5411V6.2129H86.4131V11.6089C86.4131 12.3309 86.7107 12.6919 87.3061 12.6919C87.4707 12.6919 87.9457 12.6286 88.7311 12.5019L88.9781 14.5919ZM97.1706 11.7989C97.1706 12.7236 96.8413 13.4709 96.1826 14.0409C95.524 14.6109 94.6753 14.8959 93.6366 14.8959C92.8893 14.8959 91.7936 14.6742 90.3496 14.2309L90.8246 12.0839C92.066 12.4892 93.0033 12.6919 93.6366 12.6919C94.384 12.6919 94.7576 12.3942 94.7576 11.7989C94.7576 11.3809 94.3966 11.0136 93.6746 10.6969C92.6106 10.2156 91.952 9.86723 91.6986 9.6519C90.9766 9.06923 90.6156 8.25856 90.6156 7.2199C90.6156 6.29523 90.9576 5.55423 91.6416 4.9969C92.275 4.47756 93.073 4.2179 94.0356 4.2179C94.897 4.2179 95.847 4.4269 96.8856 4.8449L96.2966 6.9159C95.3846 6.58656 94.631 6.4219 94.0356 6.4219C93.3643 6.4219 93.0286 6.6879 93.0286 7.2199C93.0286 7.58723 93.3896 7.9229 94.1116 8.2269C95.125 8.67023 95.7836 9.01856 96.0876 9.2719C96.8096 9.86723 97.1706 10.7096 97.1706 11.7989ZM104.777 12.1979V6.8399C103.992 6.56123 103.371 6.4219 102.915 6.4219C102.421 6.4219 102.035 6.59923 101.756 6.9539C101.49 7.30856 101.357 7.78356 101.357 8.3789V10.5259C101.357 11.8686 101.876 12.5399 102.915 12.5399C103.523 12.5399 104.144 12.4259 104.777 12.1979ZM107.19 14.6489C107.19 15.7256 106.848 16.5996 106.164 17.2709C105.493 17.9549 104.625 18.2969 103.561 18.2969H100.863L100.616 16.3209H103.599C103.928 16.3209 104.207 16.1752 104.435 15.8839C104.663 15.5926 104.777 15.2569 104.777 14.8769V14.2119C104.093 14.5666 103.409 14.7439 102.725 14.7439C101.623 14.7439 100.717 14.3639 100.008 13.6039C99.2987 12.8439 98.944 11.9129 98.944 10.8109V8.1699C98.944 7.0679 99.2987 6.1369 100.008 5.3769C100.717 4.60423 101.623 4.2179 102.725 4.2179C103.409 4.2179 104.188 4.43956 105.062 4.8829L105.119 4.3699H107.19V14.6489ZM112.319 14.4399C112.319 14.6426 112.224 14.7439 112.034 14.7439H109.906V6.2129L108.766 6.0989V4.3699H112.319V14.4399ZM112.661 1.5579C112.661 1.98856 112.509 2.3559 112.205 2.6599C111.901 2.95123 111.533 3.0969 111.103 3.0969C110.672 3.0969 110.305 2.95123 110.001 2.6599C109.709 2.3559 109.564 1.98856 109.564 1.5579C109.564 1.12723 109.709 0.759896 110.001 0.455896C110.305 0.151896 110.672 -0.000103951 111.103 -0.000103951C111.533 -0.000103951 111.901 0.151896 112.205 0.455896C112.509 0.759896 112.661 1.12723 112.661 1.5579ZM123.178 4.3699L119.644 14.7439H117.136L113.602 4.3699H116.148L117.535 8.7019L118.39 11.9129L119.226 8.7019L120.632 4.3699H123.178ZM129.325 12.6159V10.3359H127.881C127.412 10.3359 127.057 10.4562 126.817 10.6969C126.576 10.9249 126.456 11.2162 126.456 11.5709C126.456 11.9256 126.57 12.2296 126.798 12.4829C127.038 12.7742 127.355 12.9199 127.748 12.9199C128.229 12.9199 128.755 12.8186 129.325 12.6159ZM131.738 14.7439H129.667L129.591 14.1929C129.084 14.6616 128.394 14.8959 127.52 14.8959C126.544 14.8959 125.734 14.6299 125.088 14.0979C124.391 13.5279 124.043 12.7426 124.043 11.7419C124.043 10.6779 124.435 9.8799 125.221 9.3479C125.879 8.8919 126.741 8.6639 127.805 8.6639H129.325C129.325 7.81523 129.223 7.23256 129.021 6.9159C128.831 6.58656 128.489 6.4219 127.995 6.4219C127.222 6.4219 126.278 6.58656 125.164 6.9159L124.632 4.8069C125.848 4.41423 126.969 4.2179 127.995 4.2179C129.173 4.2179 130.091 4.5599 130.75 5.2439C131.408 5.9279 131.738 6.83356 131.738 7.9609V14.7439ZM139.154 4.4079L138.85 6.5359C138.495 6.4599 138.178 6.4219 137.9 6.4219C137.431 6.4219 136.861 6.6689 136.19 7.1629V14.4399C136.19 14.6426 136.095 14.7439 135.905 14.7439H133.777V4.3699H135.886L135.943 5.3199C136.779 4.58523 137.456 4.2179 137.976 4.2179C138.381 4.2179 138.774 4.28123 139.154 4.4079ZM148.453 9.8989C148.453 10.1902 148.308 10.3359 148.016 10.3359H142.658V10.6589C142.658 12.0142 143.361 12.6919 144.767 12.6919C145.439 12.6919 146.395 12.4892 147.636 12.0839L148.168 14.1549C146.775 14.6489 145.648 14.8959 144.786 14.8959C143.355 14.8959 142.221 14.4526 141.385 13.5659C140.625 12.7806 140.245 11.8116 140.245 10.6589V8.4739C140.245 7.30856 140.606 6.32056 141.328 5.5099C142.114 4.64856 143.121 4.2179 144.349 4.2179C145.578 4.2179 146.585 4.66123 147.37 5.5479C148.092 6.35856 148.453 7.3339 148.453 8.4739V9.8989ZM146.021 8.5309C145.945 7.1249 145.388 6.4219 144.349 6.4219C143.298 6.4219 142.741 7.1249 142.677 8.5309H146.021Z" fill="#000183"/>
</svg>
