<svg width="45" height="44" viewBox="0 0 45 44" fill="none" xmlns="http://www.w3.org/2000/svg">
<g clip-path="url(#clip0_3221_6781)">
<path d="M22.3235 44C34.6525 44 44.6471 34.1503 44.6471 22C44.6471 9.84974 34.6525 0 22.3235 0C9.99458 0 0 9.84974 0 22C0 34.1503 9.99458 44 22.3235 44Z" fill="#FFE8DD"/>
<path d="M22.3235 34.8084C16.7394 34.9177 9.32664 30.4941 9.32664 21.9916C9.31649 20.3057 9.64557 18.6347 10.2949 17.075C10.9441 15.5153 11.9008 14.0979 13.1094 12.9049C14.318 11.7118 15.7546 10.7667 17.3362 10.1243C18.9177 9.48187 20.6129 9.15482 22.3235 9.16207C24.2374 9.1423 26.1313 9.54718 27.8649 10.3467C28.1571 10.5536 28.3571 10.8636 28.4233 11.2121C28.4574 12.0271 28.5001 12.5858 28.2955 12.4976C26.5013 11.4062 24.4361 10.8247 22.3277 10.8172C18.129 10.6492 11.2193 13.9175 10.9848 21.9705C10.9762 23.9633 11.5088 25.9219 12.5274 27.6433C13.5461 29.3647 15.0136 30.7861 16.7777 31.76C18.5418 32.7338 20.5383 33.2247 22.5598 33.1816C24.5814 33.1385 26.5544 32.5631 28.2741 31.5149C28.4532 31.3973 28.4574 32.0443 28.4574 32.7752C28.4574 33.0231 28.5299 33.2751 28.3466 33.3633C26.5004 34.3526 24.4245 34.8507 22.3235 34.8084Z" fill="#000183" stroke="#000183" stroke-width="0.75" stroke-miterlimit="10"/>
<path d="M6.27474 19.6852C6.13584 19.5311 6.04666 19.3398 6.01857 19.1355C5.99048 18.9313 6.02476 18.7234 6.11703 18.5384C6.16067 18.459 6.21993 18.3889 6.29135 18.3322C6.36277 18.2756 6.44491 18.2335 6.533 18.2085C6.62108 18.1835 6.71334 18.176 6.8044 18.1865C6.89545 18.197 6.98347 18.2252 7.06334 18.2696C9.62093 20.0885 11.5306 19.7189 14.6935 17.6268C15.5204 17.0849 15.5929 17.6268 15.806 17.9167C16.0192 18.2065 16.3645 18.5006 15.5759 19.0131C12.2467 21.185 9.26287 21.9411 6.27474 19.6852Z" fill="#000183" stroke="#000183" stroke-width="0.75" stroke-miterlimit="10"/>
<path d="M28.4958 21.9917C28.4913 20.3806 27.8393 18.8368 26.6825 17.6983C25.5257 16.5599 23.9583 15.9194 22.3235 15.9172C19.1095 15.9172 17.187 18.0975 15.5757 19.0133C14.2671 19.2821 13.9005 18.4924 14.6934 17.627C18.7003 14.9804 19.8085 14.2663 22.3235 14.2663C23.3557 14.2557 24.3796 14.4477 25.3357 14.8312C26.2917 15.2147 27.1607 15.7819 27.892 16.4998C28.6233 17.2178 29.2022 18.072 29.5949 19.0127C29.9877 19.9535 30.1864 20.9619 30.1796 21.9791C30.1796 26.2262 26.4242 29.8515 22.3235 29.7003C21.3815 29.6667 20.9126 28.0704 22.3235 28.0704C23.9567 28.0605 25.5202 27.417 26.6754 26.2793C27.8306 25.1416 28.4847 23.6012 28.4958 21.9917Z" fill="#000183" stroke="#000183" stroke-width="0.75" stroke-miterlimit="10"/>
<path d="M17.0719 24.5919C17.1998 22.7771 19.2033 20.2818 22.3235 20.2566C23.5 20.2566 24.1735 20.9035 24.1437 21.0968C24.1138 21.29 24.1181 21.9369 22.4685 21.8907C20.5076 21.8529 18.9773 23.2644 18.7557 24.6423C18.4488 26.5537 20.4096 28.087 22.3235 28.0828C23.3466 28.0828 23.3679 29.7128 22.3235 29.7128C19.5997 29.717 16.8545 27.6375 17.0719 24.5919Z" fill="#000183" stroke="#000183" stroke-width="0.75" stroke-miterlimit="10"/>
<path d="M28.4064 24.9406C27.6903 24.1004 25.2947 21.8655 22.3236 21.8991C21.599 21.8991 21.68 20.2566 22.3236 20.2566C25.9469 20.2566 28.692 22.6973 29.5701 23.924C31.0251 25.5401 32.7264 26.9233 34.6129 28.024C34.8175 28.15 33.9735 29.1499 33.7134 29.1246C31.8848 28.9272 28.4661 25.0078 28.4064 24.9406Z" fill="#000183" stroke="#000183" stroke-width="0.75" stroke-miterlimit="10"/>
<path d="M36.2921 22.0841C37.5187 22.0841 38.513 21.1042 38.513 19.8954C38.513 18.6867 37.5187 17.7068 36.2921 17.7068C35.0656 17.7068 34.0713 18.6867 34.0713 19.8954C34.0713 21.1042 35.0656 22.0841 36.2921 22.0841Z" fill="#000183" stroke="#000183" stroke-width="0.5" stroke-miterlimit="10"/>
</g>
<defs>
<clipPath id="clip0_3221_6781">
<rect width="44.6471" height="44" fill="white"/>
</clipPath>
</defs>
</svg>
